<svg xmlns="http://www.w3.org/2000/svg" width="1600" height="900" viewBox="0 0 1600 900">
  <defs>
    <linearGradient id="bg" x1="0" y1="0" x2="1" y2="1">
      <stop offset="0" stop-color="#0b1220"/>
      <stop offset="1" stop-color="#0e1b2f"/>
    </linearGradient>
    <linearGradient id="steam" x1="0" y1="0" x2="0" y2="1">
      <stop offset="0" stop-color="#ffffff" stop-opacity="0.35"/>
      <stop offset="1" stop-color="#ffffff" stop-opacity="0"/>
    </linearGradient>
  </defs>
  <rect width="1600" height="900" fill="url(#bg)"/>

  <!-- Subtle grid -->
  <g stroke="#ffffff" stroke-opacity="0.06" stroke-width="1">
    <path d="M0 150H1600"/>
    <path d="M0 300H1600"/>
    <path d="M0 450H1600"/>
    <path d="M0 600H1600"/>
    <path d="M0 750H1600"/>
    <path d="M200 0V900"/>
    <path d="M400 0V900"/>
    <path d="M600 0V900"/>
    <path d="M800 0V900"/>
    <path d="M1000 0V900"/>
    <path d="M1200 0V900"/>
    <path d="M1400 0V900"/>
  </g>

  <!-- Plate -->
  <circle cx="800" cy="560" r="250" fill="#ffffff" fill-opacity="0.06"/>
  <circle cx="800" cy="560" r="210" fill="#ffffff" fill-opacity="0.05"/>

  <!-- Bowl -->
  <path d="M620 520c0 120 80 200 180 200s180-80 180-200" fill="#ffffff" fill-opacity="0.08"/>
  <path d="M600 520c0 160 100 260 200 260s200-100 200-260" fill="none" stroke="#ffffff" stroke-opacity="0.18" stroke-width="6"/>

  <!-- Steam -->
  <g fill="url(#steam)">
    <path d="M760 420c-40-60 10-90 0-140 60 40 60 90 0 140z"/>
    <path d="M820 420c-40-60 10-90 0-140 60 40 60 90 0 140z"/>
    <path d="M880 420c-40-60 10-90 0-140 60 40 60 90 0 140z"/>
  </g>

  <!-- Coin-like token -->
  <g transform="translate(1090 250)">
    <circle cx="0" cy="0" r="120" fill="#ffffff" fill-opacity="0.06"/>
    <circle cx="0" cy="0" r="95" fill="#ffffff" fill-opacity="0.05" stroke="#ffffff" stroke-opacity="0.18" stroke-width="4"/>
    <path d="M-40 20h80" stroke="#ffffff" stroke-opacity="0.35" stroke-width="10" stroke-linecap="round"/>
    <path d="M0-50v140" stroke="#ffffff" stroke-opacity="0.35" stroke-width="10" stroke-linecap="round"/>
  </g>

  <text x="90" y="130" fill="#ffffff" fill-opacity="0.85" font-size="56" font-family="system-ui, -apple-system, Segoe UI, Roboto, Arial">Cooking with Crypto</text>
  <text x="90" y="190" fill="#ffffff" fill-opacity="0.55" font-size="28" font-family="system-ui, -apple-system, Segoe UI, Roboto, Arial">Community-funded recipes • STX + sBTC</text>
</svg>
